<?xml version="1.0" standalone="no"?>
<!DOCTYPE svg PUBLIC "-//W3C//DTD SVG 20010904//EN"
 "http://www.w3.org/TR/2001/REC-SVG-20010904/DTD/svg10.dtd">
<svg version="1.0" xmlns="http://www.w3.org/2000/svg"
 width="214.000000pt" height="60.000000pt" viewBox="0 0 214.000000 60.000000"
 preserveAspectRatio="xMidYMid meet">

<g transform="translate(0.000000,60.000000) scale(0.100000,-0.100000)"
fill="#000000" stroke="none">
<path d="M768 503 c-9 -10 -33 -53 -55 -96 l-39 -78 -24 51 c-54 115 -136 119
-185 11 -21 -46 -36 -51 -54 -18 -16 31 -62 57 -98 57 -30 0 -67 -21 -95 -55
-14 -17 -20 -18 -35 -7 -32 22 -45 25 -62 15 -28 -18 -24 -48 9 -77 49 -41
111 -33 153 21 25 31 34 29 77 -17 30 -32 44 -40 72 -40 45 0 79 27 103 80
l19 42 38 -75 c39 -78 59 -94 104 -83 17 5 34 26 62 82 l38 75 44 -91 c43 -89
61 -107 94 -94 28 11 18 50 -40 167 -58 116 -79 147 -99 147 -7 0 -19 -8 -27
-17z"/>
<path d="M1101 284 c-22 -59 -29 -108 -9 -66 7 15 20 22 38 22 18 0 31 -7 38
-22 6 -13 11 -17 11 -9 1 20 -40 131 -49 131 -4 0 -17 -25 -29 -56z m42 -4 c6
-22 -10 -37 -24 -23 -10 10 0 55 11 48 4 -3 10 -14 13 -25z"/>
<path d="M1230 270 c0 -40 4 -70 10 -70 6 0 10 30 10 70 0 40 -4 70 -10 70 -6
0 -10 -30 -10 -70z"/>
<path d="M1300 270 c0 -40 4 -70 10 -70 6 0 10 11 10 25 0 33 23 32 45 -1 21
-32 30 -26 14 10 -10 20 -10 29 -1 38 28 28 -2 68 -49 68 l-29 0 0 -70z m68
28 c-2 -15 -11 -24 -25 -26 -19 -3 -23 1 -23 22 0 21 5 26 26 26 21 0 25 -4
22 -22z"/>
<path d="M1430 270 c0 -73 17 -98 22 -32 2 30 7 38 26 40 20 3 22 -1 22 -37 0
-23 5 -41 10 -41 17 0 12 76 -6 91 -12 10 -20 10 -35 1 -17 -11 -19 -9 -19 18
0 16 -4 30 -10 30 -6 0 -10 -30 -10 -70z"/>
<path d="M1560 330 c0 -5 5 -10 10 -10 6 0 10 5 10 10 0 6 -4 10 -10 10 -5 0
-10 -4 -10 -10z"/>
<path d="M1629 308 c-2 -50 3 -84 17 -97 7 -8 17 -11 21 -7 5 5 2 11 -4 13
-15 5 -18 63 -4 63 5 0 4 11 -2 25 -15 31 -27 32 -28 3z"/>
<path d="M1949 308 c-2 -50 3 -84 17 -97 7 -8 17 -11 21 -7 5 5 2 11 -4 13
-15 5 -18 63 -4 63 5 0 4 11 -2 25 -15 31 -27 32 -28 3z"/>
<path d="M1560 250 c0 -27 5 -50 10 -50 6 0 10 23 10 50 0 28 -4 50 -10 50 -5
0 -10 -22 -10 -50z"/>
<path d="M1717 282 c-10 -10 -17 -26 -17 -35 0 -23 46 -51 67 -42 15 7 13 9
-11 14 -44 9 -45 31 -2 31 39 0 45 10 20 34 -20 21 -37 20 -57 -2z m53 -12 c0
-5 -12 -10 -26 -10 -14 0 -23 4 -19 10 3 6 15 10 26 10 10 0 19 -4 19 -10z"/>
<path d="M1840 280 c-11 -11 -20 -27 -20 -35 0 -23 45 -48 72 -39 21 7 20 9
-12 14 -29 4 -35 9 -35 30 0 20 6 26 28 28 15 2 25 8 22 13 -10 15 -34 10 -55
-11z"/>
</g>
</svg>
