<?xml version="1.0" standalone="no"?>
<!DOCTYPE svg PUBLIC "-//W3C//DTD SVG 20010904//EN"
 "http://www.w3.org/TR/2001/REC-SVG-20010904/DTD/svg10.dtd">
<svg version="1.0" xmlns="http://www.w3.org/2000/svg"
 width="1957.000000pt" height="1100.000000pt" viewBox="0 0 1957.000000 1100.000000"
 preserveAspectRatio="xMidYMid meet">

<g transform="translate(0.000000,1100.000000) scale(0.100000,-0.100000)"
fill="#000000" stroke="none">
<path d="M7275 7536 c-105 -33 -188 -98 -274 -215 -76 -104 -140 -224 -289
-546 -190 -410 -525 -1075 -541 -1075 -3 0 -67 129 -141 288 -235 503 -346
725 -390 780 -61 76 -170 165 -261 212 -306 159 -653 84 -943 -205 -97 -96
-139 -172 -245 -440 -100 -250 -146 -340 -206 -402 -53 -54 -98 -72 -152 -58
-47 11 -117 95 -206 246 -47 81 -109 175 -137 210 -173 219 -434 323 -815 324
-147 0 -181 -3 -254 -23 -110 -30 -211 -77 -308 -144 -97 -66 -277 -245 -323
-321 -89 -147 -153 -202 -247 -214 -74 -8 -106 12 -193 124 -41 52 -95 113
-119 134 -60 53 -159 84 -246 77 -117 -10 -246 -91 -300 -189 -26 -48 -30 -65
-33 -159 -4 -93 -1 -114 22 -183 67 -199 228 -356 466 -454 359 -148 759 -101
1030 122 63 52 131 137 207 260 34 55 77 118 96 140 78 91 213 128 328 90 70
-24 149 -103 208 -210 123 -221 205 -319 350 -413 172 -113 366 -168 556 -159
311 16 498 145 737 507 111 168 219 358 277 485 41 90 79 145 99 145 41 0 58
-31 247 -450 152 -337 287 -605 365 -723 163 -247 330 -349 545 -334 209 15
368 118 510 331 32 48 141 255 244 459 179 358 377 727 390 727 4 0 54 -95
111 -211 58 -116 165 -324 238 -462 73 -139 201 -389 283 -557 161 -325 213
-413 283 -478 79 -73 117 -87 231 -86 78 0 112 5 156 22 118 47 185 139 196
270 14 173 -45 317 -401 982 -190 354 -361 698 -500 1010 -65 146 -138 304
-162 352 -177 355 -313 470 -489 414z"/>
<path d="M10295 5168 c-119 -359 -218 -659 -220 -665 -3 -10 15 -13 69 -13
l74 0 60 178 59 177 252 0 253 0 73 -180 73 -180 71 -3 70 -3 -219 653 c-120
359 -221 661 -225 671 -6 14 -20 17 -90 17 l-83 0 -217 -652z m394 144 c52
-158 96 -293 98 -299 4 -10 -40 -13 -197 -13 -157 0 -201 3 -197 13 2 6 46
141 98 299 52 158 96 287 99 287 3 0 47 -129 99 -287z"/>
<path d="M12295 5814 c-22 -2 -59 -7 -82 -10 l-43 -5 0 -650 0 -649 74 0 74 0
7 249 7 249 145 7 c80 4 149 3 153 -1 5 -5 61 -119 125 -254 64 -135 120 -249
124 -253 4 -4 46 -7 93 -5 l86 3 -110 200 c-60 110 -127 232 -148 272 l-40 71
43 25 c56 33 134 117 157 170 65 146 36 376 -58 459 -51 44 -146 86 -238 104
-79 15 -294 26 -369 18z m395 -160 c136 -46 191 -174 144 -335 -19 -65 -87
-137 -149 -158 -24 -8 -103 -15 -197 -18 l-158 -5 0 272 0 272 153 -4 c111 -4
167 -10 207 -24z"/>
<path d="M13460 5145 l0 -655 80 0 80 0 0 238 c0 262 11 343 55 419 34 58 90
97 169 118 89 24 157 17 197 -21 55 -53 62 -95 67 -446 l4 -318 68 0 68 0 7
117 c9 141 0 489 -15 557 -14 69 -52 148 -86 179 -41 38 -117 61 -199 61 -79
-1 -199 -40 -286 -93 l-49 -31 0 265 0 265 -80 0 -80 0 0 -655z"/>
<path d="M14793 5785 c-18 -13 -23 -26 -23 -60 0 -51 19 -75 58 -75 48 0 72
25 72 74 0 24 -6 48 -12 54 -25 20 -72 23 -95 7z"/>
<path d="M11480 5140 l0 -650 85 0 85 0 0 650 0 650 -85 0 -85 0 0 -650z"/>
<path d="M15350 5525 l0 -145 -60 0 -60 0 0 -50 0 -50 54 0 54 0 5 -217 c7
-293 35 -410 119 -490 51 -49 112 -73 191 -73 l67 0 0 55 0 55 -47 0 c-30 0
-60 8 -81 20 -78 48 -103 146 -110 433 l-4 207 106 0 106 0 0 55 0 55 -100 0
-100 0 0 145 0 145 -70 0 -70 0 0 -145z"/>
<path d="M18500 5510 l0 -140 -65 0 -65 0 0 -60 0 -60 58 0 57 0 1 -203 c0
-222 13 -309 59 -404 50 -101 153 -163 271 -163 l54 0 0 61 0 62 -28 -6 c-43
-9 -114 11 -144 40 -56 53 -78 176 -78 436 l0 177 105 0 105 0 0 60 0 60 -105
0 -105 0 0 140 0 140 -60 0 -60 0 0 -140z"/>
<path d="M16370 5416 c-162 -47 -289 -196 -320 -375 -32 -185 91 -421 263
-506 126 -62 303 -59 444 9 92 44 95 50 67 113 l-23 51 -64 -34 c-216 -114
-439 -62 -524 123 -13 29 -27 78 -30 108 l-6 55 362 0 361 0 0 23 c0 44 -39
178 -67 229 -44 81 -107 144 -178 179 -54 27 -78 32 -152 35 -54 2 -106 -2
-133 -10z m181 -128 c76 -22 159 -123 183 -220 l6 -28 -275 0 -276 0 6 23 c52
176 203 271 356 225z"/>
<path d="M14750 4950 l0 -460 85 0 85 0 0 460 0 460 -85 0 -85 0 0 -460z"/>
<path d="M17578 5395 c-179 -45 -306 -177 -337 -349 -51 -279 75 -496 324
-561 154 -40 334 1 445 101 l39 36 -25 49 -25 50 -32 -25 c-18 -14 -60 -38
-92 -53 -53 -25 -71 -28 -160 -28 -87 0 -107 3 -155 26 -70 34 -116 80 -149
149 -23 48 -26 68 -26 155 0 93 2 105 33 167 38 77 84 120 160 148 93 35 214
21 334 -40 l57 -28 31 51 30 52 -31 27 c-18 15 -64 39 -103 54 -88 33 -230 42
-318 19z"/>
</g>
</svg>
